<svg xmlns="http://www.w3.org/2000/svg" viewBox="0 0 160 50"><defs><style>.cls-1{fill:#00c0b5;}.cls-2{fill:#ffffff;}#since93{opacity:.4;}</style></defs>
<g id="trivian-logo">
<path class="cls-1" id="flag" d="M21.51,21.92H1.65V28H14c1.81,0,3.78.59,3.42,2.77Z"/>
<path class="cls-2" id="_3B" d="M11.59,50c6.07,0,10.5-3.58,10.5-9.16a8.63,8.63,0,0,0-.37-2.59h4.16c.16,2,1.68,2.42,3.37,2.42H32.8V38.23H39c2.53,0,3.7,1,3.7,2.48,0,1.69-1.32,2.59-3.62,2.59H25.87v3.34c0,2.38,1.59,2.79,3.39,2.79H39.92c6.5,0,10.31-2.87,10.31-7.59,0-3.81-2.1-5.7-5.41-6.8A6.37,6.37,0,0,0,49,28.92c0-5.23-4.68-7-9.18-7h-14v5.76c0,2.38,1.59,2.79,3.39,2.79H32.8V28h5.33c2.26,0,3.42.86,3.42,2.36,0,1.69-1.28,2.48-3.58,2.48H5.78l1.34,4.88h3.19c2.84,0,4.44,1.06,4.44,2.83s-1.36,2.87-3.5,2.87c-2.49,0-4.55-1.14-6.5-3.15L0,45.12A14.77,14.77,0,0,0,11.59,50Z"/>
<path class="cls-2" id="trivian" d="M72.51,34.44h3.42V25h3.7V22H68.81v3h3.7Zm9,0h3.42V30.89h1.69c3.07,0,5.3-1.54,5.3-4.47s-2-4.4-5.13-4.4H81.48V34.44Zm3.42-6.24V24.91h1.6c1.23,0,2,.57,2,1.63s-.74,1.65-2,1.65Zm8.79,6.24h3.19l4.78-7v7H105V22h-3.19L97,29V22H93.69V34.44Zm13.89,0H114c2.94,0,4.67-1.29,4.67-3.42a3,3,0,0,0-2.45-3.07,2.87,2.87,0,0,0,1.9-2.77,2.76,2.76,0,0,0-.79-2A4.53,4.53,0,0,0,113.9,22h-6.33V34.44Zm3.33-2.77V29.38h2.61c1.15,0,1.67.44,1.67,1.12s-.6,1.17-1.64,1.17Zm0-4.67V24.79h2.22c1,0,1.55.39,1.55,1.06S114.09,27,113.05,27Zm9.62,7.44h3.19l4.78-7v7h3.38V22h-3.19l-4.78,7V22h-3.38V34.44Zm12.9,0H137l.88-2.22h4.76l.9,2.22h3.67L142,21.93h-3.3l-5.25,12.51Zm5.48-4.9L140.3,26l1.37,3.53Zm9.87,4.9h3.42V29.72h4.39v4.72H160V22h-3.42v4.65h-4.39V22h-3.42Z"/>
<path class="cls-2" id="since93" d="M159.12,42.36a2.73,2.73,0,0,0-1.79-.53,4.07,4.07,0,0,0-1.34.22,3.78,3.78,0,0,0-1.12.6l.45.6a4.37,4.37,0,0,1,1-.52,3.32,3.32,0,0,1,1-.14,1.63,1.63,0,0,1,1.08.33,1.12,1.12,0,0,1,.4.91,1.34,1.34,0,0,1-.54,1.13,2.37,2.37,0,0,1-1.46.41H156v.77h.78q2.26,0,2.26,1.44,0,1.6-2,1.6a5.16,5.16,0,0,1-2.19-.52v.85a3.92,3.92,0,0,0,1,.33A6.45,6.45,0,0,0,157,50a3.56,3.56,0,0,0,2.22-.61A2.07,2.07,0,0,0,160,47.6a1.78,1.78,0,0,0-.46-1.27,2.26,2.26,0,0,0-1.41-.6h0a2.12,2.12,0,0,0,1.2-.64,1.8,1.8,0,0,0,.42-1.24A1.77,1.77,0,0,0,159.12,42.36Zm-5.71,1.09a2.52,2.52,0,0,0-4.15-.9,2.68,2.68,0,0,0-.69,1.94,2.39,2.39,0,0,0,.62,1.75,2.22,2.22,0,0,0,1.66.63,2.53,2.53,0,0,0,1.11-.23,1.92,1.92,0,0,0,.79-.68h.06a4.05,4.05,0,0,1-.72,2.46,2.39,2.39,0,0,1-2,.8,3.17,3.17,0,0,1-1-.14v.77a3.65,3.65,0,0,0,1,.11q3.58,0,3.58-4.63A4.91,4.91,0,0,0,153.41,43.45ZM152,42.88a1.83,1.83,0,0,1,.62.76,2.47,2.47,0,0,1,.22,1,1.26,1.26,0,0,1-.24.72,1.63,1.63,0,0,1-.65.55,2,2,0,0,1-.9.2,1.48,1.48,0,0,1-1.18-.45,1.8,1.8,0,0,1-.39-1.22,2.07,2.07,0,0,1,.42-1.38,1.48,1.48,0,0,1,1.19-.5A1.55,1.55,0,0,1,152,42.88Zm-4.66,1.78a26.18,26.18,0,0,1,.56-2.7h-.66q-.3.65-.57,1.38a11.83,11.83,0,0,0-.38,1.21l.06.12Zm-5.79,5.21a4.74,4.74,0,0,0,.9-.29v-.8a4.76,4.76,0,0,1-1.89.4,1.82,1.82,0,0,1-1.41-.54,2.35,2.35,0,0,1-.53-1.58h4.07v-.57a2.8,2.8,0,0,0-.69-1.94,2.23,2.23,0,0,0-1.76-.73,2.34,2.34,0,0,0-1.89.84,3.43,3.43,0,0,0-.7,2.27,3.09,3.09,0,0,0,.76,2.22,2.72,2.72,0,0,0,2.07.8,5,5,0,0,0,1.06-.09ZM141.36,45a2,2,0,0,1,.38,1.3h-3.09a2.14,2.14,0,0,1,.5-1.28,1.46,1.46,0,0,1,1.14-.46,1.33,1.33,0,0,1,1.06.43Zm-4.74,4.62v-.8a4,4,0,0,1-1.52.32,1.53,1.53,0,0,1-1.3-.58,2.74,2.74,0,0,1-.44-1.67q0-2.3,1.8-2.3a2.89,2.89,0,0,1,.62.08,4.22,4.22,0,0,1,.65.2l.28-.76A2.81,2.81,0,0,0,136,44a4,4,0,0,0-.85-.09,2.57,2.57,0,0,0-2,.81,3.35,3.35,0,0,0-.71,2.29,3.25,3.25,0,0,0,.7,2.24,2.52,2.52,0,0,0,2,.79,3.23,3.23,0,0,0,1.49-.31Zm-5.7.2V46a2.2,2.2,0,0,0-.54-1.65,2.25,2.25,0,0,0-1.61-.52,2.51,2.51,0,0,0-1.11.24,1.83,1.83,0,0,0-.77.68h0L126.7,44H126v5.92h.9v-3.1a2.54,2.54,0,0,1,.43-1.66,1.7,1.7,0,0,1,1.36-.5,1.34,1.34,0,0,1,1,.36,1.55,1.55,0,0,1,.31,1.08v3.83ZM124.08,44h-.9v5.92h.9Zm-.82-1.15a.54.54,0,0,0,.75,0,.59.59,0,0,0,.16-.45.58.58,0,0,0-.16-.45.56.56,0,0,0-.75,0,.6.6,0,0,0-.15.45.61.61,0,0,0,.15.42Zm-1.9,4.48a3.87,3.87,0,0,0-1.42-.77,8.72,8.72,0,0,1-1-.44,1.2,1.2,0,0,1-.39-.32.67.67,0,0,1-.12-.4.62.62,0,0,1,.32-.55,1.86,1.86,0,0,1,1-.2,4.28,4.28,0,0,1,1.61.37l.32-.73a4.72,4.72,0,0,0-1.87-.39,2.74,2.74,0,0,0-1.61.42,1.33,1.33,0,0,0-.59,1.14,1.36,1.36,0,0,0,.17.7,1.6,1.6,0,0,0,.52.52,6.33,6.33,0,0,0,1.17.54,4.71,4.71,0,0,1,1.17.58.77.77,0,0,1-.08,1.27,2.13,2.13,0,0,1-1.08.22,3.82,3.82,0,0,1-.94-.12,4.43,4.43,0,0,1-.91-.34v.83a3.75,3.75,0,0,0,1.83.37,2.89,2.89,0,0,0,1.73-.45,1.48,1.48,0,0,0,.62-1.27,1.36,1.36,0,0,0-.46-1Z"/>
<path class="cls-2" id="ads" d="M91.95,5.91a1.43,1.43,0,0,1-.09.3,2.19,2.19,0,0,1-.24.46c-.15.23-.33.49-.54.76s-.44.54-.68.82a9.81,9.81,0,0,1-.79.79,6.77,6.77,0,0,1-.87.67,4.8,4.8,0,0,1-.9.46,2.51,2.51,0,0,1-.9.17,1.71,1.71,0,0,1-1.41-.62A3,3,0,0,1,85,7.81c-.13.17-.27.34-.43.52s-.32.35-.48.51l-.48.47-.44.39a7.68,7.68,0,0,1-1.09.74,2.19,2.19,0,0,1-1.07.3,1.17,1.17,0,0,1-.32-.07,1.53,1.53,0,0,1-.76-.73,1.49,1.49,0,0,1-.17-.74,6.91,6.91,0,0,1,0-.8,3.7,3.7,0,0,1,.17-.74,7.27,7.27,0,0,1,.2-.73l.24-.77.12-.35.15-.4.13-.34a.87.87,0,0,0,.06-.18.6.6,0,0,1,.1-.26,1.84,1.84,0,0,1,.24-.28,1.7,1.7,0,0,1,.28-.22A.52.52,0,0,1,81.71,4a.72.72,0,0,1,.35.09,1,1,0,0,1,.42.47.68.68,0,0,1,.05.23.77.77,0,0,1,0,.18,2.93,2.93,0,0,1-.11.29l-.16.35L82,6a4.32,4.32,0,0,0-.26.62,7.47,7.47,0,0,0-.21.73,7,7,0,0,0-.14.72,4,4,0,0,0-.05.61V8.8a.67.67,0,0,0,0,.14.64.64,0,0,0,0,.11.08.08,0,0,0,.07,0A.86.86,0,0,0,81.95,9a4.31,4.31,0,0,0,.53-.36c.19-.15.39-.31.6-.5l.59-.55.52-.52.37-.4A7.91,7.91,0,0,0,85.14,6a8.14,8.14,0,0,0,.49-.77l.22-.38a1.77,1.77,0,0,1,.21-.28.81.81,0,0,1,.23-.18.59.59,0,0,1,.26-.06.61.61,0,0,1,.45.17.8.8,0,0,1,.17.58.92.92,0,0,1-.06.2l-.16.34-.16.35-.09.21a2.52,2.52,0,0,0-.13.43,4,4,0,0,1-.09.48,3.53,3.53,0,0,0,0,.46v.38a1.41,1.41,0,0,0,.22.84.7.7,0,0,0,.6.3,1.47,1.47,0,0,0,.57-.13,4.24,4.24,0,0,0,.64-.35A7.12,7.12,0,0,0,89.13,8c.23-.19.45-.39.67-.61s.42-.42.62-.64l.53-.58.18-.2.2-.18.19-.13a.29.29,0,0,1,.15-.05h.21a.23.23,0,0,1,.07.09.36.36,0,0,1,0,.17ZM107,3.59a2.91,2.91,0,0,0-.35-.76,3.42,3.42,0,0,0-.57-.67,3.57,3.57,0,0,0-.77-.53c-.27-.13-.55-.26-.84-.37a6.82,6.82,0,0,0-1-.28,10.65,10.65,0,0,0-1.2-.19,10,10,0,0,0-1.51-.07H99.52a10.51,10.51,0,0,0-1.27.12c-.41.05-.79.11-1.15.18a7.22,7.22,0,0,0-.91.24,1.29,1.29,0,0,0-.53.34.78.78,0,0,0-.21.54.48.48,0,0,0,.22.4,1.16,1.16,0,0,0,.67.16h.29l.32-.08.22-.06h.78c-.06,0,0,.13-.06.28a2.56,2.56,0,0,0-.1.57l-.13.78a6,6,0,0,1-.14.9c-.05.31-.09.62-.14.93s-.1.61-.13.88a5.29,5.29,0,0,1-.1.74c-.06.23,0,.33-.06.53s0,.37-.07.54a.92.92,0,0,0-.08.43.7.7,0,0,1,0,.15h-.11l-.08.16a.38.38,0,0,0,0,.15.87.87,0,0,0,.08.36,1,1,0,0,0,.49.5.86.86,0,0,0,.34.07,6.72,6.72,0,0,0,.77,0,5.42,5.42,0,0,0,.92-.14l1-.22c.35-.09.75-.21,1.06-.31l.94-.33q.47-.18.94-.41a9.88,9.88,0,0,0,.92-.51,7.79,7.79,0,0,0,.88-.64,7.06,7.06,0,0,0,.87-.86,5.84,5.84,0,0,0,.64-.91,4.52,4.52,0,0,0,.4-.92,3.11,3.11,0,0,0,.14-.9A2.8,2.8,0,0,0,107,3.59Zm-1.76,1.87a3.75,3.75,0,0,1-.55.94,5.48,5.48,0,0,1-.86.85,7.25,7.25,0,0,1-1.11.75,8.84,8.84,0,0,1-1.31.58A9.55,9.55,0,0,1,99.95,9h-.58l-.3.05h-.12A.21.21,0,0,1,98.78,9a.94.94,0,0,1,0-.29h.06a1.38,1.38,0,0,1,0-.54,3.35,3.35,0,0,0,.11-.68A2.13,2.13,0,0,1,99,6.78a1.54,1.54,0,0,0,.08-.55l.06-.32.09-.53.11-.66A4.35,4.35,0,0,0,99.46,4l.14-.73a3.74,3.74,0,0,0,.14-.64.48.48,0,0,1,.08-.18.36.36,0,0,1,.17-.13,1,1,0,0,1,.31-.08,4.09,4.09,0,0,1,.5,0,10.52,10.52,0,0,1,2,.17,5.77,5.77,0,0,1,1.46.46,2.53,2.53,0,0,1,.9.7,1.44,1.44,0,0,1,.31.89A2.6,2.6,0,0,1,105.27,5.46Zm14.68.45a1.43,1.43,0,0,1-.09.3,2.19,2.19,0,0,1-.24.46c-.15.23-.33.49-.54.76s-.44.54-.68.82a9.81,9.81,0,0,1-.79.79,6.75,6.75,0,0,1-.87.67,4.79,4.79,0,0,1-.9.46,2.51,2.51,0,0,1-.9.17,1.71,1.71,0,0,1-1.41-.62A3,3,0,0,1,113,7.81c-.13.17-.27.34-.43.52s-.32.35-.48.51l-.48.47-.44.39a7.68,7.68,0,0,1-1.09.74,2.18,2.18,0,0,1-1.06.3,1.17,1.17,0,0,1-.32-.07,1.59,1.59,0,0,1-.44-.25,1.57,1.57,0,0,1-.39-.47,1.48,1.48,0,0,1-.17-.74,6.89,6.89,0,0,1,0-.8,3.7,3.7,0,0,1,.13-.74,7.27,7.27,0,0,1,.2-.73l.24-.77.12-.35.15-.4.13-.34a.88.88,0,0,0,.06-.18.59.59,0,0,1,.11-.26,1.84,1.84,0,0,1,.24-.28,1.7,1.7,0,0,1,.28-.22.52.52,0,0,1,.25-.09.73.73,0,0,1,.35.09,1,1,0,0,1,.42.47.68.68,0,0,1,.05.23.78.78,0,0,1,0,.18,2.88,2.88,0,0,1-.11.29l-.16.35-.23.34a4.33,4.33,0,0,0-.26.62c-.08.24-.15.48-.21.73a7,7,0,0,0-.14.72,4.06,4.06,0,0,0-.05.61V8.8a.66.66,0,0,0,0,.14.62.62,0,0,0,0,.11.08.08,0,0,0,.07,0,.86.86,0,0,0,.49,0,4.32,4.32,0,0,0,.53-.36c.19-.15.39-.31.6-.5l.59-.55.52-.52.37-.4A7.89,7.89,0,0,0,113,6a8.17,8.17,0,0,0,.49-.77l.22-.38a1.77,1.77,0,0,1,.21-.28.81.81,0,0,1,.23-.18.59.59,0,0,1,.26-.06.61.61,0,0,1,.45.17.8.8,0,0,1,.17.58.92.92,0,0,1-.06.2l-.15.34L114.7,6l-.09.21a2.54,2.54,0,0,0-.13.43,4,4,0,0,1-.09.48,3.53,3.53,0,0,0,0,.46v.38a1.41,1.41,0,0,0,.22.84.7.7,0,0,0,.6.3,1.47,1.47,0,0,0,.57-.13,4.25,4.25,0,0,0,.64-.35,7.11,7.11,0,0,0,.68-.51c.23-.19.45-.39.67-.61s.42-.42.61-.64l.53-.61.18-.2.2-.18.19-.13a.3.3,0,0,1,.15-.05h.21a.23.23,0,0,1,.08.09A.36.36,0,0,1,119.95,5.91Zm39.87-.14a.28.28,0,0,0-.09-.11.26.26,0,0,0-.17,0,.44.44,0,0,0-.23.11,3.21,3.21,0,0,0-.33.3l-.42.45-.49.54-.54.59-.57.6a7.44,7.44,0,0,1-.66.58,4.47,4.47,0,0,1-.57.38,2.64,2.64,0,0,1-.49.21,1.56,1.56,0,0,1-.42.06.51.51,0,0,1-.24,0,.5.5,0,0,1-.19-.19,1,1,0,0,1-.13-.33,2.27,2.27,0,0,1,0-.5,6,6,0,0,1,0-.67,3.63,3.63,0,0,1,.08-.6,4.67,4.67,0,0,1,.1-.49,1.88,1.88,0,0,0,.09-.33l.14-.4a4,4,0,0,0,.15-.45,1.85,1.85,0,0,0,.11-.52,2.12,2.12,0,0,0,0-.39,1.46,1.46,0,0,0,0-.33.79.79,0,0,0-.11-.27.54.54,0,0,0-.21-.19.65.65,0,0,0-.32-.07,1,1,0,0,0-.4.07.72.72,0,0,0-.27.2.94.94,0,0,0-.16.3,1.64,1.64,0,0,0-.07.38,1.77,1.77,0,0,0,0,.41,3.29,3.29,0,0,0-.09.43,2.75,2.75,0,0,1-.14.4,1.09,1.09,0,0,1-.19.3,1,1,0,0,1-.35.2,3.62,3.62,0,0,1-.57.15,7.07,7.07,0,0,1-.73.09h-.83V6.47a5,5,0,0,1,0-.58,1.41,1.41,0,0,1,.08-.58,3.56,3.56,0,0,0,.08-.47,2.11,2.11,0,0,0,0-.25,2.21,2.21,0,0,0,0-.28,1.14,1.14,0,0,0-.1-.32.85.85,0,0,0-.21-.27.53.53,0,0,0-.35-.11.6.6,0,0,0-.4.14,1.12,1.12,0,0,0-.27.32,1.44,1.44,0,0,0-.15.36,1.57,1.57,0,0,0-.06.27v.85a.3.3,0,0,0-.15,0l-.19.13-.2.18-.18.2-.53.61c-.19.22-.39.42-.61.64s-.44.42-.67.61a7.13,7.13,0,0,1-.68.51,4.26,4.26,0,0,1-.64.35,1.47,1.47,0,0,1-.57.13.7.7,0,0,1-.6-.3,1.41,1.41,0,0,1-.22-.84V7.44a3.53,3.53,0,0,1,0-.46,4.06,4.06,0,0,0,.06-.48,2.51,2.51,0,0,1,.13-.43l.09-.21.16-.35.15-.34a.93.93,0,0,0,.06-.2.8.8,0,0,0-.18-.58.61.61,0,0,0-.45-.17.59.59,0,0,0-.26.06.81.81,0,0,0-.23.18,1.78,1.78,0,0,0-.21.28l-.22.38a8.1,8.1,0,0,1-.49.77,7.89,7.89,0,0,1-.58.72l-.37.4-.52.52-.59.55c-.21.19-.41.35-.6.5a4.33,4.33,0,0,1-.53.36.86.86,0,0,1-.39.14.08.08,0,0,1-.07,0,.61.61,0,0,1,0-.11.65.65,0,0,1,0-.14V8.71a4.06,4.06,0,0,1,0-.61,7,7,0,0,1,.14-.72c.06-.25.13-.49.21-.73a4.35,4.35,0,0,1,.26-.62l.19-.39.16-.35a2.87,2.87,0,0,0,.14-.29.77.77,0,0,0,.15-.12.68.68,0,0,0,0-.23.91.91,0,0,0-.43-.47.72.72,0,0,0-.35-.09.52.52,0,0,0-.25.09,1.71,1.71,0,0,0-.28.22,1.84,1.84,0,0,0-.24.28.59.59,0,0,0-.11.26.88.88,0,0,1-.06.18l-.13.34-.09.24h-.06a.39.39,0,0,0-.25.09,1.5,1.5,0,0,0-.21.2c-.21.22-.43.44-.67.66s-.49.42-.74.62a9,9,0,0,1-.75.55c-.25.16-.49.31-.71.43a4.61,4.61,0,0,1-.61.29,1.34,1.34,0,0,1-.45.1.55.55,0,0,1-.53-.34,2.56,2.56,0,0,1-.23-1.06.77.77,0,0,1,0-.37,1.54,1.54,0,0,0,.06-.43,3.57,3.57,0,0,0,.08-.43,3.17,3.17,0,0,1,.09-.34l.09-.3a1.71,1.71,0,0,1,.09-.3.48.48,0,0,0,.06-.27,1,1,0,0,0,0-.2.39.39,0,0,0-.06-.21.53.53,0,0,0-.16-.16.84.84,0,0,0-.22-.1h-.25a1,1,0,0,0-.31-.57.83.83,0,0,0-.27-.19.79.79,0,0,0-.34-.07h-.57l-.31.08-.22.08a2.53,2.53,0,0,0-.67.35,5.62,5.62,0,0,0-.71.59,7.79,7.79,0,0,0-.68.77l-.16.23-.17.07a3.09,3.09,0,0,0-.4.26l-.45.36-.49.39-.36.27-.3.22-.29.2-.34.2-.43.23-.57.29a.86.86,0,0,1-.08-.27,1.14,1.14,0,0,0-.15-.33,1.29,1.29,0,0,0-.6-.54,2.25,2.25,0,0,0-.92-.17,3.09,3.09,0,0,0,.5-.41,3.84,3.84,0,0,0,.44-.51,2.66,2.66,0,0,0,.31-.55,1.44,1.44,0,0,0,.11-.53,1.32,1.32,0,0,0-.15-.62,1.54,1.54,0,0,0-.4-.49,2,2,0,0,0-.59-.32,2.2,2.2,0,0,0-.71-.11h-.5l-.34.06a1.13,1.13,0,0,0-.25.07l-.2.07-.35.13-.42.19a2.6,2.6,0,0,0-.4.26,1.41,1.41,0,0,0-.3.31.63.63,0,0,0-.12.37.36.36,0,0,0,.15.33.69.69,0,0,0,.38.1,1.36,1.36,0,0,0,.54-.11,5.12,5.12,0,0,0,.53-.25l.51-.25a1.15,1.15,0,0,1,.48-.11.48.48,0,0,1,.23,0,.59.59,0,0,1,.18.14.56.56,0,0,1,.11.19.61.61,0,0,1,0,.21,1.1,1.1,0,0,1-.15.56,1.93,1.93,0,0,1-.38.46,4.15,4.15,0,0,1-.51.39l-.53.35-.45.29-.37.26a1.24,1.24,0,0,0-.26.26.54.54,0,0,0,0,.58.45.45,0,0,0,.16.14.57.57,0,0,0,.19.06h.15a1.1,1.1,0,0,0,.34-.06l.38,0,.24-.24.37-.17h.23a1,1,0,0,1,.71.25.88.88,0,0,1,.28.69.11.11,0,0,1-.1.09l-.23.12-.26.12-.2.1-1.1.57a7.74,7.74,0,0,0-1,.62,4.43,4.43,0,0,0-.78.73,2.29,2.29,0,0,0-.45.91v.61a1.16,1.16,0,0,0,0,.15,1.4,1.4,0,0,0,.07.39,2,2,0,0,0,.17.41.87.87,0,0,0,.21.25,1.48,1.48,0,0,0,.29.18,2,2,0,0,0,.33.11,1.33,1.33,0,0,0,.32,0,4.52,4.52,0,0,0,.63,0,3.19,3.19,0,0,0,.59-.15,3.49,3.49,0,0,0,.58-.28,4.78,4.78,0,0,0,.61-.43,3.85,3.85,0,0,0,.35-.35l.39-.48c.13-.16.25-.33.36-.49a2.62,2.62,0,0,0,.23-.4,5.76,5.76,0,0,0,.24-.55,5.13,5.13,0,0,0,.2-.59,2.47,2.47,0,0,0,.14-.55,2.69,2.69,0,0,0,.06-.42l1-.53c.3-.17.63-.37.85-.52l.64-.45v.12a2.18,2.18,0,0,0-.08.29.81.81,0,0,0,0,.34v.61a1.58,1.58,0,0,0,.08.49,1.27,1.27,0,0,0,.25.44,1.29,1.29,0,0,0,.44.32,1.46,1.46,0,0,0,.64.13,1,1,0,0,0,.41-.11,3.21,3.21,0,0,0,.51-.3,6.85,6.85,0,0,0,.57-.44c.2-.17.4-.34.59-.53s.39-.38.57-.58l.52-.58a3.2,3.2,0,0,0,.1.82,2,2,0,0,0,.28.64,1.34,1.34,0,0,0,.44.41,1.12,1.12,0,0,0,.57.14,4.28,4.28,0,0,0,.51,0,3.35,3.35,0,0,0,.46-.09,3.67,3.67,0,0,0,.46-.15l.51-.22a3.7,3.7,0,0,0,.51-.3l.56-.42.58-.48.55-.51.38-.39a2.11,2.11,0,0,0-.09.32,3.7,3.7,0,0,0-.13.74,6.91,6.91,0,0,0,0,.8,1.48,1.48,0,0,0,.17.74,1.57,1.57,0,0,0,.39.47,1.59,1.59,0,0,0,.44.25,1.17,1.17,0,0,0,.32.07,2.18,2.18,0,0,0,1.06-.3,7.65,7.65,0,0,0,1.09-.74l.44-.39.48-.47q.24-.24.48-.51c.16-.18.3-.35.43-.52a3,3,0,0,0,.51,1.91,1.71,1.71,0,0,0,1.41.62,2.51,2.51,0,0,0,.9-.17,4.8,4.8,0,0,0,.9-.46,6.75,6.75,0,0,0,.82-.71,9.79,9.79,0,0,0,.79-.79c.24-.28.51-.6.68-.82s.31-.43.44-.62V7a.19.19,0,0,1-.07.13l-.15.13a.77.77,0,0,0-.14.17.48.48,0,0,0-.06.26.52.52,0,0,0,0,.24.54.54,0,0,0,.1.15l.1.1a.15.15,0,0,1,0,.1,3.23,3.23,0,0,1,0,.46,4,4,0,0,0-.07.44l-.07.36a1.23,1.23,0,0,0,0,.23v.6a1.8,1.8,0,0,0,0,.34.75.75,0,0,0,.12.3.68.68,0,0,0,.26.21.94.94,0,0,0,.42.08.91.91,0,0,0,.4-.07.49.49,0,0,0,.2-.19.91.91,0,0,0,.09-.26,2.11,2.11,0,0,1,.09-.29.89.89,0,0,0,0-.19V9.82a1.18,1.18,0,0,0,0-.21,3.83,3.83,0,0,1,0-.52,1.14,1.14,0,0,0,.06-.43V8.5a1.64,1.64,0,0,1,0-.17.5.5,0,0,1,.06-.14.14.14,0,0,1,.09-.06l.79-.12.68-.13a3.62,3.62,0,0,0,.53-.17,1.31,1.31,0,0,0,.36-.21,7,7,0,0,0-.12.8V9a2.75,2.75,0,0,0,.1.77,1.52,1.52,0,0,0,.31.59,1.37,1.37,0,0,0,.53.37,2,2,0,0,0,.77.13,2.76,2.76,0,0,0,1-.2,4.83,4.83,0,0,0,1-.5,7.14,7.14,0,0,0,.85-.67c.26-.25.5-.49.71-.72a10.78,10.78,0,0,0,.9-1q.36-.46.58-.78a4.5,4.5,0,0,0,.32-.52.79.79,0,0,0,.1-.28V6A.44.44,0,0,0,159.82,5.77Zm-36.87,4.67-.15.37a2.43,2.43,0,0,1-.15.3h.06a5.37,5.37,0,0,1-.46.68,4.2,4.2,0,0,1-.48.51,2.37,2.37,0,0,1-.46.33.89.89,0,0,1-.41.11.3.3,0,0,1-.24-.1.32.32,0,0,1-.08-.19,1.15,1.15,0,0,1,0-.34,1.54,1.54,0,0,1,.12-.29,1.62,1.62,0,0,1,.15-.23l.14-.17a4.69,4.69,0,0,1,.84-.7,9.78,9.78,0,0,1,1.29-.72Zm8.76-4.88a7,7,0,0,1-.4.81,8.48,8.48,0,0,1-.47.72,6.1,6.1,0,0,1-.46.56V7.6c-.2.22-.4.42-.59.6l-.52.46-.39.29a.57.57,0,0,1-.22.1.12.12,0,0,1-.09,0,.31.31,0,0,1-.06-.12.92.92,0,0,1,0-.15V8.62a2.07,2.07,0,0,1,.13-.66,5.52,5.52,0,0,1,.35-.79,9.48,9.48,0,0,1,.49-.82q.22-.39.47-.75A6,6,0,0,1,130.5,5a1.93,1.93,0,0,1,.46-.34l.34-.14a1,1,0,0,1,.33-.06.29.29,0,0,1,.16.05.34.34,0,0,1,.13.21,4.57,4.57,0,0,1-.22.83ZM144.85.65a1,1,0,0,1-.07.33,2.8,2.8,0,0,1-.21.43,2.84,2.84,0,0,1-.33.44,2.45,2.45,0,0,1-.44.39h0a2.59,2.59,0,0,1-.41.21,3.61,3.61,0,0,1-.5.16,4.63,4.63,0,0,1-.53.1,3.52,3.52,0,0,1-.51,0,3.26,3.26,0,0,1-.78-.09,2.94,2.94,0,0,1-.7-.26,2.68,2.68,0,0,1-.57-.4,2.34,2.34,0,0,1-.42-.51,1.71,1.71,0,0,1-.1-.21L139.16,1a1.94,1.94,0,0,1-.05-.2.71.71,0,0,1,0-.12.71.71,0,0,1,.07-.34.54.54,0,0,1,.17-.2.6.6,0,0,1,.2,0h.22a.94.94,0,0,1,.46.11.49.49,0,0,1,.25.41,1.2,1.2,0,0,0,.09.36.92.92,0,0,0,.24.35,1.42,1.42,0,0,0,.45.26,1.89,1.89,0,0,0,.66.1h.47l.25-.08.21-.1a1,1,0,0,0,.24-.2,1.49,1.49,0,0,0,.16-.35,2.72,2.72,0,0,0,.12-.27l.09-.25a.5.5,0,0,1,.12-.2.9.9,0,0,1,.18-.14l.19-.14h.19a.79.79,0,0,1,.48.14.6.6,0,0,1,.19.51ZM10.16,1.18A3.24,3.24,0,0,0,8.95.62,3.48,3.48,0,0,0,8.22.49L7.54.41H5.41l-.8.08-.8.12L3.06.75a9.85,9.85,0,0,0-1,.25,2.86,2.86,0,0,0-.72.29,1.09,1.09,0,0,0-.39.38,1,1,0,0,0-.24.43.48.48,0,0,0,.18.38.67.67,0,0,0,.44.15H1.5l.16-.06.5-.16.46-.14A7.09,7.09,0,0,0,2.34,3a5.89,5.89,0,0,0-.2.72A5.24,5.24,0,0,1,2,4.47c0,.26-.07.46-.13.8s-.11.64-.14.91a5.66,5.66,0,0,1-.09.76,2.54,2.54,0,0,0-.06.66v.6q0,3.39,1,3.39a.91.91,0,0,0,.61-.2.69.69,0,0,0,.23-.55V7.69a14.14,14.14,0,0,0,1.41-.51c.47-.2,1-.45,1.38-.63S6.95,6.17,7.33,6a8,8,0,0,0,1.1-.69,9.19,9.19,0,0,0,1-.75,4.25,4.25,0,0,0,.67-.7,2.62,2.62,0,0,0,.21-.35,4.48,4.48,0,0,0,.2-.44,1.48,1.48,0,0,0,.15-.43,1.27,1.27,0,0,0,.06-.31h0A1.33,1.33,0,0,0,10.16,1.18ZM8.95,2.81a3.47,3.47,0,0,1-.54.6A5.65,5.65,0,0,1,7.74,4,7.67,7.67,0,0,1,7,4.5l-.3.17-.32.17L6.09,5l-.14.15-.52.23-.61.26-.61.25-.53.22V5.62a1.4,1.4,0,0,1,0-.29A2,2,0,0,0,3.7,5l.06-.33c.06-.11,0-.23.06-.33A.52.52,0,0,0,3.88,4a1.62,1.62,0,0,1,.07-.24A.39.39,0,0,0,4,3.54l.12-.39.12-.39a1.1,1.1,0,0,0,0-.22A.74.74,0,0,0,4.1,2q.65-.11,1.32-.17a12.16,12.16,0,0,1,1.23-.09h1A6,6,0,0,1,8.75,2a.43.43,0,0,1,.4.2A1.18,1.18,0,0,1,8.95,2.81Zm66,2.92a.22.22,0,0,0-.19-.09.39.39,0,0,0-.25.09,1.51,1.51,0,0,0-.21.2c-.21.22-.43.44-.67.66s-.49.42-.74.62a9,9,0,0,1-.75.55c-.25.16-.49.31-.71.43a4.64,4.64,0,0,1-.61.29,1.35,1.35,0,0,1-.45.1.55.55,0,0,1-.53-.34,2.56,2.56,0,0,1-.17-1.06.77.77,0,0,1,0-.37,1.54,1.54,0,0,0,.06-.43A3.57,3.57,0,0,0,69.8,6a3.14,3.14,0,0,1,.09-.34l.09-.3a1.71,1.71,0,0,1,.09-.3.48.48,0,0,0,.06-.27,1,1,0,0,0,0-.2.39.39,0,0,0-.06-.21.53.53,0,0,0-.12-.21.84.84,0,0,0-.22-.1h-.25a1,1,0,0,0-.31-.57.84.84,0,0,0-.27-.19.79.79,0,0,0-.34-.07H68l-.32.12-.22.08a2.54,2.54,0,0,0-.67.35,5.59,5.59,0,0,0-.7.59,7.78,7.78,0,0,0-.68.77c-.14.18-.26.36-.38.54h-.1l-.17.14-.41.42-.39.47L63.63,7l-.25.28a7.36,7.36,0,0,1-.82.71,8.23,8.23,0,0,1-.85.56,5.5,5.5,0,0,1-.9.42,2.35,2.35,0,0,1-.78.16,1,1,0,0,1-.29,0A.64.64,0,0,1,59.45,9a1,1,0,0,1-.22-.37A1.79,1.79,0,0,1,59.14,8V7.35a6.61,6.61,0,0,1,.08-.66,3.88,3.88,0,0,1,.11-.61c0-.19.07-.34.11-.52s.08-.33.1-.46a1.17,1.17,0,0,1,.09-.42.46.46,0,0,0,.07-.28.89.89,0,0,0,0-.18A.37.37,0,0,0,59.61,4a.92.92,0,0,0-.2-.19,1,1,0,0,0-.23-.13.53.53,0,0,0-.18,0,.78.78,0,0,0-.3.06,1.06,1.06,0,0,0-.26.16,1.43,1.43,0,0,0-.21.21,1.63,1.63,0,0,0-.15.23,8.63,8.63,0,0,1-.5.86c-.21.32-.44.67-.69,1l-.78,1c-.27.34-.53.64-.77.91l-.15.16a1.77,1.77,0,0,1-.24.2l-.19.19a1,1,0,0,1-.35.07c-.09,0-.2-.1-.2-.28a3.53,3.53,0,0,1-.07-.8V7.11a1.63,1.63,0,0,1,0-.54A3.56,3.56,0,0,0,54.2,6a3.2,3.2,0,0,0,.09-.47,2.53,2.53,0,0,0,.06-.25,2.26,2.26,0,0,0,0-.36.53.53,0,0,0-.09-.32A.55.55,0,0,0,54,4.42a.84.84,0,0,0-.25-.08h-.36l-.2.06L53,4.47l-.1.09-.31.27a3.74,3.74,0,0,0-.33.37,5.36,5.36,0,0,0-.34.48,6.3,6.3,0,0,0-.31.59l-.3.55c-.11.2-.23.39-.36.59s-.27.39-.42.58a4.08,4.08,0,0,1-.47.5,2.76,2.76,0,0,1-.52.37A1.57,1.57,0,0,1,49,9h-.2a.71.71,0,0,1-.23,0,.57.57,0,0,1-.18-.16.44.44,0,0,1-.08-.25A.78.78,0,0,0,48.11,8a.75.75,0,0,0-.23-.15l.07-.12c.18-.17.34-.34.48-.49l.37-.41A1.15,1.15,0,0,0,49,6.45,1.49,1.49,0,0,0,49.11,6,.6.6,0,0,0,49,5.69a.21.21,0,0,0-.19-.09.39.39,0,0,0-.25.09,1.49,1.49,0,0,0-.21.2c-.21.22-.43.44-.67.66s-.49.42-.74.62a9,9,0,0,1-.75.55c-.25.16-.49.31-.71.43a4.63,4.63,0,0,1-.61.29,1.35,1.35,0,0,1-.45.1.55.55,0,0,1-.52-.3,2.56,2.56,0,0,1-.17-1.06.77.77,0,0,1,0-.37,1.54,1.54,0,0,0,.06-.43A3.57,3.57,0,0,0,43.95,6a3.22,3.22,0,0,1,0-.39l.09-.3a1.71,1.71,0,0,1,.09-.3.48.48,0,0,0,.06-.27,1,1,0,0,0,0-.2.38.38,0,0,0-.06-.21A.53.53,0,0,0,44,4.17a.84.84,0,0,0-.22-.1h-.2a1,1,0,0,0-.31-.57.83.83,0,0,0-.29-.19.79.79,0,0,0-.34-.07H42l-.31.08-.22.08a2.53,2.53,0,0,0-.67.35,5.6,5.6,0,0,0-.71.59,7.77,7.77,0,0,0-.68.77,9,9,0,0,0-.5.79h0a1.74,1.74,0,0,0-.3.24l-.35.34-.38.4c-.36.37-.68.7-1,1s-.63.56-.92.79a5.47,5.47,0,0,1-.81.54,1.43,1.43,0,0,1-.63.19.35.35,0,0,1-.16,0,.24.24,0,0,1-.11-.13A1,1,0,0,1,34.2,9a5,5,0,0,1,0-.52,6,6,0,0,1,0-.71,5,5,0,0,1,.12-.83L34.47,6l.15-.78.12-.6a2.59,2.59,0,0,0,0-.33A.48.48,0,0,0,34.59,4a1.07,1.07,0,0,0-.32-.2,1.52,1.52,0,0,0-.32-.1h-.31a2.56,2.56,0,0,0-.84.14,1.78,1.78,0,0,0-.68.41,2.53,2.53,0,0,0-.32.38,5.15,5.15,0,0,0-.32.51c-.11.2-.24.45-.38.73l-.52,1a6.42,6.42,0,0,1-1,1.55,1.36,1.36,0,0,1-.92.51h-.13a.55.55,0,0,1-.18-.06.54.54,0,0,1-.17-.14.48.48,0,0,1-.08-.25.8.8,0,0,0-.24-.58l-.16-.09.25-.32c.14-.17.26-.33.38-.49s.21-.3.3-.44a3.11,3.11,0,0,0,.2-.34A.54.54,0,0,0,28.9,6a.29.29,0,0,0-.08-.23.36.36,0,0,0-.23-.07.61.61,0,0,0-.24,0l-.2.12-.2.16-.17.2-.53.58-.56.6L26.13,8a6.33,6.33,0,0,1-.54.51,4.5,4.5,0,0,1-1.21.81,2.7,2.7,0,0,1-1,.25A.94.94,0,0,1,23,9.5a.69.69,0,0,1-.26-.2,1.25,1.25,0,0,1-.19-.36,3.88,3.88,0,0,1-.15-.52,1.47,1.47,0,0,0-.27-.61,1.51,1.51,0,0,0-.43-.36,4,4,0,0,0,.37-.25l.35-.29.31-.29.21-.31a3.47,3.47,0,0,1,.47-.44,1.57,1.57,0,0,1,.53-.26.65.65,0,0,0,.21-.12,1.17,1.17,0,0,0,.18-.19,1,1,0,0,0,.13-.21.49.49,0,0,0,0-.19.52.52,0,0,0-.06-.23.69.69,0,0,0-.17-.21.86.86,0,0,0-.29-.16,1,1,0,0,0-.37,0,1,1,0,0,0-.28,0,2.06,2.06,0,0,0-.32.14l-.32.2a2.69,2.69,0,0,0-.3.25l-.19.19-.22.22-.34.35L21.32,6l-.3.34a2,2,0,0,1-.27.26l-.31.19L20.12,7l-.3.11-.24.07a2.36,2.36,0,0,1,.08-.4,2.51,2.51,0,0,0,.09-.43l.2-1a3,3,0,0,0,0-.56.78.78,0,0,0,0-.25.87.87,0,0,0-.15-.25.94.94,0,0,0-.23-.19.61.61,0,0,0-.3-.08.83.83,0,0,0-.26,0,1,1,0,0,0-.41.28.84.84,0,0,0-.12.18,1.42,1.42,0,0,0-.07.27,2.27,2.27,0,0,0-.1.54l-.07.43A1.76,1.76,0,0,0,18,6L16.62,7.47a18,18,0,0,1-1.33,1.28A8.21,8.21,0,0,1,14,9.66a2.22,2.22,0,0,1-1.1.34,1.21,1.21,0,0,1-.41-.09,1,1,0,0,1-.33-.22.91.91,0,0,1-.19-.3,1,1,0,0,1-.07-.32l.42-.34.46-.38L13.25,8l.37-.26A5.86,5.86,0,0,0,14.26,7a5.5,5.5,0,0,0,.47-.73,3.76,3.76,0,0,0,.29-.7,2.16,2.16,0,0,0,.1-.61,1.38,1.38,0,0,0-.1-.51A1.45,1.45,0,0,0,14.74,4a1.35,1.35,0,0,0-.43-.31,1.28,1.28,0,0,0-.55-.12,1.76,1.76,0,0,0-.53.09,3.14,3.14,0,0,0-.52.22,3.51,3.51,0,0,0-.47.31,3.24,3.24,0,0,0-.38.36,4.93,4.93,0,0,0-.67.93,6.31,6.31,0,0,0-.46,1,6.76,6.76,0,0,0-.27,1.06,6.18,6.18,0,0,0-.09,1,4.29,4.29,0,0,0,.14,1.14,2.32,2.32,0,0,0,.44.88,2,2,0,0,0,.74.58,2.73,2.73,0,0,0,1.1.2,3,3,0,0,0,1.4-.38,7.89,7.89,0,0,0,1.46-1,16.74,16.74,0,0,0,1.57-1.61l.9-1.06v.33A4.52,4.52,0,0,1,18,8.4,2,2,0,0,0,18,9v.39a4.07,4.07,0,0,0,0,.59,1.13,1.13,0,0,0,.13.41.61.61,0,0,0,.26.25.88.88,0,0,0,.42.09H19a.66.66,0,0,0,.23-.1.55.55,0,0,0,.15-.19.65.65,0,0,0,.06-.28V8.74a1.82,1.82,0,0,1,0-.3l.06-.11a.84.84,0,0,1,.19-.1l.24-.09L20.17,8h.15a.4.4,0,0,1,.29.15,1.28,1.28,0,0,1,.25.52c.08.29.17.56.26.82a2.28,2.28,0,0,0,.37.68,1.64,1.64,0,0,0,.61.46,2.34,2.34,0,0,0,1,.17,2.92,2.92,0,0,0,.9-.14,4.27,4.27,0,0,0,.87-.38,6.1,6.1,0,0,0,.83-.57,10.41,10.41,0,0,0,.79-.7,1.55,1.55,0,0,0,.12.31,1.53,1.53,0,0,0,.34.5,1.62,1.62,0,0,0,.45.36,1.78,1.78,0,0,0,.7.13,3.21,3.21,0,0,0,2.28-1,5.29,5.29,0,0,0,.57-.64,7.73,7.73,0,0,0,.4-.67q.2-.35.36-.7L32,6.63c.15-.34.29-.62.4-.82a3.07,3.07,0,0,1,.31-.46.79.79,0,0,1,.25-.2h.19a3.29,3.29,0,0,1,0,.4,3.86,3.86,0,0,0-.09.51l-.13.53-.11.6a3.29,3.29,0,0,1-.11.64,3.5,3.5,0,0,1-.1.58,1.24,1.24,0,0,0-.07.48,3,3,0,0,0,0,.33,2.41,2.41,0,0,0,.07.58,1.66,1.66,0,0,0,.21.51,1.12,1.12,0,0,0,.36.36.92.92,0,0,0,.51.14,3.25,3.25,0,0,0,1.24-.26,6.83,6.83,0,0,0,1.23-.67A9.38,9.38,0,0,0,37.3,9l.57-.57V9.1a1.58,1.58,0,0,0,.08.49,1.28,1.28,0,0,0,.19.42,1.29,1.29,0,0,0,.44.32,1.46,1.46,0,0,0,.64.13,1,1,0,0,0,.41-.11,3.2,3.2,0,0,0,.51-.3,6.84,6.84,0,0,0,.57-.44c.2-.17.4-.34.59-.53s.39-.38.57-.58l.52-.58a3.21,3.21,0,0,0,.1.82,2,2,0,0,0,.28.64,1.33,1.33,0,0,0,.44.41,1.12,1.12,0,0,0,.57.14,4.31,4.31,0,0,0,.51,0,3.34,3.34,0,0,0,.46-.09,3.69,3.69,0,0,0,.46-.15l.51-.22a3.7,3.7,0,0,0,.51-.3l.56-.42a1.59,1.59,0,0,0,.16.66,1.68,1.68,0,0,0,.47.54,1.91,1.91,0,0,0,.61.31,2.3,2.3,0,0,0,.66.1,3.13,3.13,0,0,0,1.6-.42,4.83,4.83,0,0,0,1.38-1.3l.16-.24L52,8l.2-.44.23-.44.21-.41.16-.32a1.22,1.22,0,0,1-.07.46,3.68,3.68,0,0,0-.08.58L52.62,8a3.49,3.49,0,0,0,0,.35,2.32,2.32,0,0,0,.14.85,1.6,1.6,0,0,0,.36.57,1.31,1.31,0,0,0,.47.31,1.39,1.39,0,0,0,.49.1A2,2,0,0,0,55,9.94a4.35,4.35,0,0,0,.85-.6,6.39,6.39,0,0,0,.74-.78q.33-.42.58-.78l.19-.3L57.64,7l.2-.45.18-.3a4.31,4.31,0,0,0-.15.48,3.25,3.25,0,0,1-.12.54,1.12,1.12,0,0,0-.08.5,3.42,3.42,0,0,0,0,.4,3.86,3.86,0,0,0,.15,1.17,1.83,1.83,0,0,0,.41.72,1.32,1.32,0,0,0,.61.35,3,3,0,0,0,.76.09,3.94,3.94,0,0,0,1-.12,5,5,0,0,0,.91-.33,6.06,6.06,0,0,0,.85-.5,9.32,9.32,0,0,0,.78-.62c.21-.18.4-.38.59-.57V9a1.57,1.57,0,0,0,.08.49,1.27,1.27,0,0,0,.25.44,1.29,1.29,0,0,0,.44.32,1.46,1.46,0,0,0,.64.13,1,1,0,0,0,.41-.11,3.18,3.18,0,0,0,.51-.3,6.76,6.76,0,0,0,.57-.44c.2-.17.4-.34.59-.53s.39-.38.57-.58l.52-.58a3.22,3.22,0,0,0,.1.82,2,2,0,0,0,.28.64,1.33,1.33,0,0,0,.44.41,1.12,1.12,0,0,0,.57.14,4.31,4.31,0,0,0,.51,0,3.34,3.34,0,0,0,.46-.09,3.7,3.7,0,0,0,.46-.15l.51-.22a3.7,3.7,0,0,0,.51-.3l.56-.42.58-.48.55-.51c.18-.17.34-.34.48-.49l.37-.41a1.15,1.15,0,0,0,.19-.38,1.5,1.5,0,0,0,.07-.4A.61.61,0,0,0,74.95,5.73Zm-62.81.94a5.61,5.61,0,0,1,.38-.92,2.32,2.32,0,0,1,.43-.62.74.74,0,0,1,.53-.23.18.18,0,0,1,.18.1.81.81,0,0,1,0,.27h0a1.13,1.13,0,0,1,0,.31,1.72,1.72,0,0,1-.21.42,5.92,5.92,0,0,1-.41.56q-.27.32-.7.76l-.11.11-.14.14-.14.14-.13.08c.13-.4.2-.79.31-1.12ZM42.51,5.55a7,7,0,0,1-.4.81,8.46,8.46,0,0,1-.47.72,6.09,6.09,0,0,1-.46.56h0c-.2.22-.4.42-.59.6l-.52.46-.4.29a.57.57,0,0,1-.22.1.12.12,0,0,1-.09,0A.31.31,0,0,1,39.3,9a.93.93,0,0,1,0-.15V8.67A2.07,2.07,0,0,1,39.39,8a5.48,5.48,0,0,1,.35-.79,9.51,9.51,0,0,1,.49-.82c.18-.27.37-.53.55-.75A6,6,0,0,1,41.34,5a1.93,1.93,0,0,1,.46-.34l.34-.14a1,1,0,0,1,.33-.06.29.29,0,0,1,.16,0,.34.34,0,0,1,.13.21A4.57,4.57,0,0,1,42.51,5.55Zm25.84,0a6.92,6.92,0,0,1-.4.81,7,7,0,0,1-.44.71,6,6,0,0,1-.46.56h0c-.2.22-.4.42-.59.6l-.51.48L65.48,9a.57.57,0,0,1-.22.1.12.12,0,0,1-.09,0A.31.31,0,0,1,65.11,9a1,1,0,0,1,0-.15v-.2A2.07,2.07,0,0,1,65.24,8a5.51,5.51,0,0,1,.35-.79,9.51,9.51,0,0,1,.49-.82,9.1,9.1,0,0,1,.55-.75A6,6,0,0,1,67.18,5a1.93,1.93,0,0,1,.46-.34l.31-.12a1,1,0,0,1,.33-.06.29.29,0,0,1,.16.05.34.34,0,0,1,.13.21,4.57,4.57,0,0,1-.22.83Z"/>
</g>
</svg>